<svg xmlns="http://www.w3.org/2000/svg" id="Layer_1" viewBox="0 0 800 600" width="800" height="600"><defs><style>.cls-1,.cls-2,.cls-6{fill:#fff}.cls-1,.cls-2,.cls-3{stroke:#07aa4b;stroke-miterlimit:10}.cls-1{stroke-width:7px}.cls-2{stroke-width:3px}.cls-3{fill:none;stroke-width:4px}.cls-4{fill:#07aa4b}.cls-5{fill:#dbbd93}.cls-6{font-size:39.46px;font-family:Bauhaus93,&quot;Bauhaus 93&quot;}</style></defs><path id="carrot_body" d="M333.76 326.59c17.17.46-14.53-124.13-38.71-107.79C255 229.05 312.62 326 333.76 326.59z" class="cls-1"/><path id="carrot_left" d="M284.68 220.19l-13.8-18.62-5.88 5.16 19.68 13.46z" class="cls-2"/><path id="carrot_right" d="M293.05 216.14l12.05-23.33-7.79-2.39-4.26 25.72z" class="cls-2"/><path id="carrot_middle" d="M288.15 217.91l-3.36-30.38-13.01 3.43 16.37 26.95z" class="cls-2"/><path id="carrot_line1" d="M300.29 252.71l19.86-8.07" class="cls-3"/><path id="carrot_line2" d="M303.72 260.79l19.86-8.07" class="cls-3"/><path id="carrot_line3" d="M306.76 267.64l19.86-8.06" class="cls-3"/><path id="wine_body" d="M362.6 165.52H383v46l2.1 7.44 17.54 15.57v87.29c1.41 12.18-13.33 9.47-13.33 9.47h-44.25c-7 0-3.84-8.79-3.84-8.79l.33-83.91L357.69 219v-53.48z" class="cls-1"/><path id="wine_v" d="M371.46 247.72v41.1" class="cls-3"/><path id="wine_h" d="M371.46 248.81h31.24" class="cls-3"/><path id="wine_up" d="M367.08 181.41l-4.93 4.93" class="cls-3"/><path id="wine-down" d="M366.53 189.08l-4.93 4.93" class="cls-3"/><path id="bread_body" d="M470 190.49c43.15-2.56-25.66 149.06-42.59 143.11-35.84-1.29-20.64-131.2 42.59-143.11z" class="cls-1"/><ellipse id="bread_1" cx="441.82" cy="232.02" class="cls-4" rx="3.92" ry="17.32" transform="rotate(-73.92 441.83 232.02)"/><ellipse id="bread_2" cx="434.41" cy="248.1" class="cls-4" rx="3.92" ry="17.32" transform="rotate(-73.92 434.416 248.098)"/><ellipse id="bread_3" cx="429.73" cy="264.32" class="cls-4" rx="3.92" ry="17.32" transform="rotate(-73.7 431.052 264.195)"/><path id="bag" d="M474.6 273l-9.67 110.87S468.32 394 447.54 394H319.47s-31.41 1.52-33.82-13.67L275 273s12.09-11.14 14.88 0c4 15.19 34.9-10.13 38.28 0s26.58 0 26.58 0 20.78-10.13 26.58 0 26.58 0 26.58 0 18.36-13.16 26.58 0 19.65 3.73 26.58 0c13.02-7 15.07.11 13.54 0z" class="cls-5"/><text class="cls-6" transform="translate(289.52 347.93)">GROCERY</text></svg>